<svg width="24" height="24" viewBox="0 0 24 24" fill="none" xmlns="http://www.w3.org/2000/svg">
<g clip-path="url(#clip0_1211_3498)">
<path d="M20.5 3.51501C15.813 -1.17199 8.215 -1.17199 3.529 3.51501C-1.157 8.20101 -1.157 15.799 3.529 20.485C8.215 25.171 15.813 25.171 20.5 20.485C25.167 15.791 25.167 8.21001 20.5 3.51501ZM16.707 15.293C17.098 15.684 17.098 16.316 16.707 16.707C16.512 16.902 16.256 17 16 17C15.744 17 15.488 16.902 15.293 16.707L12 13.414L8.707 16.707C8.512 16.902 8.256 17 8 17C7.744 17 7.488 16.902 7.293 16.707C6.902 16.316 6.902 15.684 7.293 15.293L10.586 12L7.293 8.70701C6.902 8.31601 6.902 7.68401 7.293 7.29301C7.684 6.90201 8.316 6.90201 8.707 7.29301L12 10.586L15.293 7.29301C15.684 6.90201 16.316 6.90201 16.707 7.29301C17.098 7.68401 17.098 8.31601 16.707 8.70701L13.414 12L16.707 15.293Z" fill="#212121"/>
</g>
<defs>
<clipPath id="clip0_1211_3498">
<rect width="24" height="24" fill="white"/>
</clipPath>
</defs>
</svg>
