<svg width="12" height="7" viewBox="0 0 12 7" fill="none" xmlns="http://www.w3.org/2000/svg">
<path d="M10.375 0.718991L5.99999 4.21899L1.62499 0.718991C1.52243 0.636915 1.4047 0.575844 1.27854 0.539264C1.15237 0.502685 1.02024 0.491313 0.889679 0.505799C0.75912 0.520285 0.632693 0.560345 0.517615 0.623691C0.402538 0.687037 0.301064 0.772429 0.218988 0.874991C0.136912 0.977554 0.0758403 1.09528 0.0392608 1.22144C0.00268121 1.34761 -0.00869024 1.47974 0.0057957 1.6103C0.0202816 1.74086 0.0603413 1.86729 0.123687 1.98236C0.187033 2.09744 0.272425 2.19892 0.374988 2.28099L5.37499 6.28099C5.55235 6.423 5.77278 6.50037 5.99999 6.50037C6.22719 6.50037 6.44763 6.423 6.62499 6.28099L11.625 2.28099C11.8321 2.11523 11.9649 1.87398 11.9942 1.6103C12.0234 1.34662 11.9467 1.08213 11.781 0.874991C11.6989 0.772429 11.5974 0.687037 11.4824 0.623691C11.3673 0.560345 11.2409 0.520285 11.1103 0.505799C10.8466 0.476543 10.5821 0.553231 10.375 0.718991Z" fill="#A2A2A2"/>
</svg>
