<svg width="8" height="5" viewBox="0 0 8 5" fill="none" xmlns="http://www.w3.org/2000/svg">
<path d="M7.00004 0.500001H1.00004C0.90102 0.499824 0.804176 0.529052 0.721787 0.58398C0.639398 0.638909 0.575174 0.717064 0.537256 0.808537C0.499338 0.900011 0.489435 1.00068 0.508802 1.09779C0.528169 1.1949 0.575933 1.28407 0.64604 1.354L3.64604 4.354C3.69249 4.40056 3.74766 4.43751 3.80841 4.46271C3.86915 4.48792 3.93427 4.50089 4.00004 4.50089C4.06581 4.50089 4.13093 4.48792 4.19167 4.46271C4.25242 4.43751 4.30759 4.40056 4.35404 4.354L7.35404 1.354C7.42415 1.28407 7.47191 1.1949 7.49128 1.09779C7.51065 1.00068 7.50074 0.900011 7.46282 0.808537C7.42491 0.717064 7.36068 0.638909 7.27829 0.58398C7.1959 0.529052 7.09906 0.499824 7.00004 0.500001Z" fill="#2D2E2F"/>
</svg>
