<svg width="17" height="16" viewBox="0 0 17 16" fill="none" xmlns="http://www.w3.org/2000/svg">
<path d="M6.33337 2.5V0.5" stroke="#4F5259" stroke-linecap="round" stroke-linejoin="round"/>
<path d="M11.3334 2.5V0.5" stroke="#4F5259" stroke-linecap="round" stroke-linejoin="round"/>
<path d="M16.3334 10.5H14.3334" stroke="#4F5259" stroke-linecap="round" stroke-linejoin="round"/>
<path d="M16.3334 5.5H14.3334" stroke="#4F5259" stroke-linecap="round" stroke-linejoin="round"/>
<path d="M3.33337 10.5H1.33337" stroke="#4F5259" stroke-linecap="round" stroke-linejoin="round"/>
<path d="M3.33337 5.5H1.33337" stroke="#4F5259" stroke-linecap="round" stroke-linejoin="round"/>
<path d="M6.33337 15.5V13.5" stroke="#4F5259" stroke-linecap="round" stroke-linejoin="round"/>
<path d="M11.3334 15.5V13.5" stroke="#4F5259" stroke-linecap="round" stroke-linejoin="round"/>
<path d="M13.2334 2.5H4.43337C3.82586 2.5 3.33337 2.99249 3.33337 3.6V12.4C3.33337 13.0075 3.82586 13.5 4.43337 13.5H13.2334C13.8409 13.5 14.3334 13.0075 14.3334 12.4V3.6C14.3334 2.99249 13.8409 2.5 13.2334 2.5Z" stroke="#4F5259" stroke-linecap="round" stroke-linejoin="round"/>
<path d="M12.3334 4.5H5.33337V11.5H12.3334V4.5Z" stroke="#4F5259" stroke-linecap="round" stroke-linejoin="round"/>
</svg>
