<svg width="8" height="5" viewBox="0 0 8 5" fill="none" xmlns="http://www.w3.org/2000/svg">
<path d="M4.35404 0.645978C4.30759 0.599415 4.25242 0.562472 4.19167 0.537266C4.13093 0.512059 4.06581 0.499084 4.00004 0.499084C3.93427 0.499084 3.86915 0.512059 3.80841 0.537266C3.74766 0.562472 3.69249 0.599415 3.64604 0.645978L0.64604 3.64598C0.575933 3.71591 0.528169 3.80508 0.508802 3.90219C0.489435 3.9993 0.499338 4.09997 0.537256 4.19144C0.575174 4.28291 0.639398 4.36107 0.721787 4.416C0.804176 4.47093 0.90102 4.50016 1.00004 4.49998H7.00004C7.09906 4.50016 7.1959 4.47093 7.27829 4.416C7.36068 4.36107 7.42491 4.28291 7.46282 4.19144C7.50074 4.09997 7.51065 3.9993 7.49128 3.90219C7.47191 3.80508 7.42415 3.71591 7.35404 3.64598L4.35404 0.645978Z" fill="#2D2E2F"/>
</svg>
